<!DOCTYPE svg PUBLIC "-//W3C//DTD SVG 20010904//EN" "http://www.w3.org/TR/2001/REC-SVG-20010904/DTD/svg10.dtd">
<svg version="1.0" xmlns="http://www.w3.org/2000/svg" width="131px" height="126px" viewBox="0 0 1310 1260" preserveAspectRatio="xMidYMid meet">
<g id="layer101" fill="#76bd44" stroke="none">
 <path d="M560 1244 c-59 -26 -105 -79 -116 -134 -2 -8 -5 -28 -8 -45 -4 -20 -24 -45 -57 -74 -64 -55 -104 -117 -129 -200 -106 -340 261 -654 577 -494 89 45 157 114 200 201 36 73 38 80 38 176 0 92 -3 107 -31 166 -33 69 -105 156 -148 179 -14 8 -26 21 -26 28 0 26 -43 118 -69 147 -55 60 -156 83 -231 50z"/>
 <path d="M1140 575 c0 -13 94 -134 105 -135 12 0 69 69 62 76 -2 3 -33 15 -68 28 -35 13 -72 27 -81 31 -10 4 -18 4 -18 0z"/>
 <path d="M80 459 c-41 -17 -76 -32 -78 -34 -2 -2 6 -14 17 -27 11 -12 27 -32 35 -43 8 -11 16 -18 18 -15 2 3 24 32 48 65 24 33 47 62 52 63 13 6 9 22 -4 21 -7 0 -47 -14 -88 -30z"/>
 <path d="M982 303 c24 -54 80 -153 86 -153 8 1 76 61 70 63 -1 1 -35 24 -74 50 -68 45 -90 56 -82 40z"/>
 <path d="M303 211 c-29 -33 -53 -63 -53 -68 0 -11 64 -43 84 -43 9 0 16 19 20 53 4 28 9 67 12 85 4 17 2 32 -2 32 -5 0 -33 -27 -61 -59z"/>
 <path d="M632 96 c-12 -41 -22 -79 -22 -85 0 -7 21 -11 50 -11 29 0 50 4 50 11 0 21 -43 159 -50 159 -4 0 -17 -33 -28 -74z"/>
 </g>
<g id="layer102" fill="#bedba6" stroke="none">
 <path d="M536 1209 c-22 -5 -46 -15 -54 -21 -12 -10 -31 -47 -34 -68 -1 -3 -4 -19 -8 -37 l-8 -32 47 5 46 5 -44 -20 c-50 -24 -55 -25 -45 -9 4 7 3 8 -5 4 -6 -4 -9 -11 -6 -16 3 -4 -1 -10 -7 -13 -8 -2 1 -20 26 -48 22 -24 43 -45 47 -47 5 -2 22 7 39 20 25 18 47 23 108 26 90 3 125 -10 130 -50 5 -41 -21 -48 -156 -46 -109 3 -123 1 -149 -18 -20 -15 -29 -31 -31 -58 -3 -32 2 -42 30 -69 l34 -32 -29 -24 c-54 -45 -74 -142 -43 -214 16 -38 66 -84 116 -105 43 -18 149 -19 191 -2 28 12 33 11 57 -14 23 -22 25 -28 12 -36 -32 -20 0 -9 44 16 26 15 71 49 99 77 29 27 43 43 32 34 -19 -15 -23 -14 -63 11 l-42 27 0 63 c0 34 -6 77 -14 96 -29 69 -142 127 -217 112 -36 -7 -79 8 -79 29 0 13 15 14 108 9 96 -6 113 -4 154 14 55 24 78 61 78 124 0 67 -49 123 -135 157 -29 11 -29 11 10 6 22 -3 48 -5 58 -5 9 0 17 -8 18 -17 0 -12 2 -14 6 -5 8 20 -38 129 -64 153 -18 17 -38 21 -120 25 -54 2 -116 -1 -137 -7z m233 -26 c16 -7 -11 -8 -85 -5 -60 2 -129 -1 -154 -7 -61 -14 -63 -6 -4 13 53 17 198 16 243 -1z m-24 -31 c30 -5 5 -8 -95 -12 -74 -3 -137 -5 -139 -3 -2 1 12 6 30 12 41 11 150 13 204 3z m49 -42 c11 -4 -31 -5 -94 -3 -84 4 -130 1 -172 -10 -61 -16 -77 -14 -30 4 69 27 234 32 296 9z m-116 -491 c30 -10 62 -58 62 -94 0 -25 -28 -73 -49 -85 -39 -20 -91 -12 -123 20 -27 27 -30 36 -25 71 6 43 29 76 62 90 28 11 37 11 73 -2z"/>
 <path d="M354 968 c-36 -39 -82 -97 -58 -73 27 26 106 115 102 115 -2 0 -22 -19 -44 -42z"/>
 <path d="M935 970 c21 -22 41 -40 44 -40 3 0 -13 18 -34 40 -21 22 -41 40 -44 40 -3 0 13 -18 34 -40z"/>
 <path d="M1063 675 c0 -44 2 -61 4 -37 2 23 2 59 0 80 -2 20 -4 1 -4 -43z"/>
 <path d="M232 710 c0 -19 2 -27 5 -17 2 9 2 25 0 35 -3 9 -5 1 -5 -18z"/>
 <path d="M255 528 c4 -13 11 -27 16 -33 5 -5 4 5 -2 23 -12 36 -24 44 -14 10z"/>
 <path d="M80 365 c-7 -8 -17 -12 -23 -8 -6 3 -7 1 -3 -5 10 -17 19 -15 34 8 14 23 10 26 -8 5z"/>
 <path d="M980 303 c1 -13 30 -48 30 -36 0 7 -5 15 -10 18 -6 4 -8 11 -5 16 4 5 1 9 -4 9 -6 0 -11 -3 -11 -7z"/>
 <path d="M339 253 c-13 -16 -12 -17 3 -5 14 11 17 10 21 -5 4 -14 5 -13 6 5 1 26 -11 29 -30 5z"/>
 <path d="M638 253 c12 -2 30 -2 40 0 9 3 -1 5 -23 4 -22 0 -30 -2 -17 -4z"/>
 <path d="M274 178 l-29 -33 33 29 c30 28 37 36 29 36 -2 0 -16 -15 -33 -32z"/>
 <path d="M611 23 c-1 -21 3 -23 52 -21 l52 2 -47 3 c-33 3 -48 9 -51 21 -3 12 -5 11 -6 -5z"/>
 </g>
<g id="layer103" fill="#fcfdfb" stroke="none">
 <path d="M513 1197 c-18 -7 -38 -17 -44 -24 -7 -7 11 -3 39 7 83 32 292 23 292 -12 0 -5 -7 -8 -15 -4 -35 13 -174 18 -228 7 -81 -15 -110 -31 -114 -63 l-3 -26 52 21 c42 16 76 21 158 21 111 1 180 -9 180 -25 0 -5 -11 -6 -27 -2 -16 4 -80 7 -143 7 -95 0 -125 -4 -170 -22 l-55 -22 50 5 c28 3 68 8 90 11 55 8 37 -6 -21 -17 -46 -9 -134 -47 -134 -58 0 -3 16 -25 36 -48 l36 -43 27 19 c104 74 321 27 242 -52 -19 -20 -30 -21 -141 -19 -79 2 -127 -1 -142 -9 -59 -31 -64 -83 -13 -128 l36 -31 -36 -37 c-85 -88 -65 -227 41 -289 56 -33 150 -43 211 -21 41 14 42 14 72 -16 27 -28 32 -30 57 -18 34 15 104 70 104 81 0 4 -19 20 -42 35 l-43 27 0 73 c-1 60 -5 79 -25 109 -40 58 -83 78 -177 84 -61 3 -86 9 -98 22 -13 15 -14 19 -1 29 11 9 30 9 81 0 115 -20 198 3 235 64 37 60 20 134 -42 180 -37 27 -89 47 -124 47 -13 0 -24 4 -24 10 0 6 31 7 80 3 52 -4 80 -2 80 4 0 20 -39 99 -57 115 -23 20 -230 24 -280 5z m212 -37 c38 -6 73 -14 77 -18 4 -4 -50 -7 -120 -7 -70 0 -147 -4 -172 -8 -63 -11 -29 9 47 27 72 18 81 18 168 6z m-14 -559 c38 -39 40 -96 4 -139 -30 -36 -66 -47 -110 -32 -107 35 -78 200 35 200 33 0 48 -6 71 -29z"/>
 </g>

</svg>